<?xml version="1.0" encoding="utf-8"?>
<!-- Generator: Adobe Illustrator 27.3.1, SVG Export Plug-In . SVG Version: 6.00 Build 0)  -->
<svg version="1.1" id="Layer_1" xmlns="http://www.w3.org/2000/svg" xmlns:xlink="http://www.w3.org/1999/xlink" x="0px" y="0px"
	 viewBox="0 0 2000 2000" style="enable-background:new 0 0 2000 2000;" xml:space="preserve">
<path d="M1600.2,784.3c2.4,8.8,3.7,18.2,7.6,26.3c9.9,20.8,14.3,45.9,37.8,57c12.4,5.8,26.4,8.3,39.8,11.8
	c6.9,1.8,14.2,2.4,21.1,4.2c4,1,8.1,2.8,11.5,5.2c10.2,7.2,9.8,17.8-0.2,25.2c-8.7,6.4-16.9,13.4-25.6,19.7
	c-3.3,2.4-7.7,3.4-11.4,5.4c-4.9,2.6-10.5,4.8-14.3,8.6c-10.7,10.4-23.8,10.9-37.3,11.5c-11.6,0.5-23.3,0.9-34.8,2.4
	c-13.6,1.8-27,5-40.5,7.3c-18.4,3.2-33.1,13.3-45.1,26.6c-7.3,8.1-7.6,19.3-3.3,29.8c3.9,9.6,3.3,17.7-3.3,26.8
	c-7.2,9.8-15,16.8-26,22.3c-16,8-17.2,23.7-4.8,34.1c3,2.6,6.1,5.1,9.2,7.5c7.2,5.5,10.8,12.5,11.2,21.9c0.8,18.4-1.1,36-8.6,53.1
	c-4.6,10.5-5.2,21.5-0.1,32.5c1.9,4.2,3.3,8.7,4.2,13.2c2.8,13.9-5.3,21.1-19,18.5c-11.2-2.1-22.7-4-34-3.5
	c-13.7,0.7-21.2-6.7-28.5-16.1c-7.9-10.3-16.5-20-30.5-21.4c-5.7-0.6-11.6,0.7-17.4,1.2c-12.2,0.9-23.1-1.7-32.8-9.8
	c-12.1-10.1-24.7-19.7-37.5-29c-13.3-9.7-16.6-24.7-21.6-38.9c-4.2-11.9-5.7-23.9-2.4-36.6c2.2-8.8,7.3-12.6,15.2-14.4
	c4.6-1,9.9-0.7,13.9-2.9c16.4-9.1,19-20.3,11.8-43.3c-9.3-29.9-31.4-44-60.5-49.1c-13.5-2.4-20.5-12.2-15.4-24.4
	c3.6-8.8,10.8-17.6,4.9-26.6c-5.8-8.7-14.1-16.2-22.5-22.7c-15.5-12-33.3-18.8-53.2-20.6c-7.2-0.7-14.9-3.7-20.9-7.8
	c-11.3-7.7-22.4-9.6-35.3-5.1c-6.1,2.1-13,2.1-19.3,3.6c-10.3,2.5-16.9-4-22.5-10.2c-5.8-6.5-1.1-14.2,4.2-17.9
	c9.1-6.5,11.2-15.5,10.6-24.8c-1.6-26.1,3.4-51.2,9.3-76.2c1.6-6.7,4.1-13.5,3.6-20.2c-0.7-10.3,5.8-15.4,12-21.3
	c13.3-12.8,24-27.8,25.9-46.1c1.3-12.3,6.9-20.7,13.9-29.3c4.3-5.3,9.4-7.3,16.5-4.8c25.9,9.1,52.4,14.6,80,12.1
	c17.2-1.6,34.4-3.5,51.5-5.9c15.8-2.2,24-16.4,36.2-24.3c14.5-9.4,27.5-21.1,41.6-31.2c23.8-17.2,51.2-24.2,80.1-25.8
	c14.7-0.8,20.3,3.4,20.1,18.4c-0.7,35.4,20.4,59.8,40.8,84.5c6.5,7.8,12.1,15.2,11.8,26.1c-0.6,17.9,10.9,28.1,25.2,35.7
	c9.7,5.2,20.6,8.6,29.3,15c9.5,7,17.9,15.9,25.3,25.1c3.5,4.4,3.8,11.4,5.5,17.2C1602.2,783.7,1601.2,784,1600.2,784.3L1600.2,784.3
	z"/>
<path d="M766.9,1201.8c1-21.5-8-37.5-25.2-50.4c-5.8-4.4-10.2-13.5-11.2-21c-3.2-24.3-24.8-43.4-49.2-45.7c-17-1.6-31.1,1.4-45.6,10
	c-15.6,9.2-46.9,3.1-59.7-10.5c-11.7-12.4-24.5-22.6-40.5-29.3c-13.9-5.8-23.9-16.7-33.4-28.5c-8-9.9-19.2-17.4-29.3-25.5
	c-7.4-5.9-16-10.5-22.9-16.9c-11.5-11-22.3-22.8-32.9-34.7c-9.6-10.8-10.5-23.3-4.5-36.3c7.6-16.6,3-32.2-4.1-47.3
	c-3.6-7.7-3.4-14.5,1.7-21c8.2-10.5,7.7-21,0.5-31.7c-1.3-1.9-2.6-3.8-3.8-5.8c-7-12.1-7.4-24.7,3.2-33.8
	c13.4-11.5,9.1-25.5,9.7-39.4c0.5-11.8,1.6-23.8,4.5-35.2c1-3.8,7.6-7.9,12.2-8.9c11.3-2.4,22.9-2.9,34.4-4.3
	c17.2-2.2,28.2-11.8,33.4-28.3c3.6-11.4,11.2-18.4,22.8-21.9c11.2-3.3,20.2-9.7,26.6-20.1c6.6-10.8,6.6-19.8-2.2-29.3
	c-6-6.5-12.9-12.2-18.6-18.9c-6.8-7.9-5.1-12.7,4.3-18c8.8-4.9,17.8-9.8,26-15.7c3.3-2.4,5.5-7.2,6.8-11.4c3.9-12.9,13.9-17,23.4-8
	c12.6,11.8,28.5,8.8,43.1,11.6c3.5,0.7,7.2,0.8,10.5,1.9c9,2.8,10.9,8.9,5.3,16.7c-7.2,10-6.3,20.2,2.6,29.1
	c2.8,2.8,5.8,5.5,8.5,8.4c5.7,6.1,6.5,13,1.3,19.6c-8.4,10.8-11.7,22.3-9.3,36.2c2,11.3,1.2,23,2.2,34.5c0.9,10.5,7.6,17.1,16,22.4
	c1.7,1,3.5,1.9,5,3.1c13.5,10.8,14.4,17.8,4.2,31.7c-12.7,17.3-11.4,29.7,4.1,44.6c9.7,9.4,20.7,15.9,34.3,17.6
	c2.8,0.3,5.7,1.3,8.3,2.6c24.4,12.1,48.4,25,73.2,36.3c9.2,4.2,20.1,4.6,30.2,6.9c11.1,2.5,22.1,6.2,33.3,7.1
	c14.1,1.1,24.3,6.9,33.5,17.4c12.4,14.1,28,22.8,47.9,20.9c5.4-0.5,11-0.4,16.2,0.8c4.2,1,9,3.4,11.6,6.7c3.9,4.8,0.5,9.2-3.3,13.3
	c-7.2,7.6-14,15.5-20.6,23.6c-4.8,6-8.7,12.7-13.6,18.6c-2.4,2.9-5.9,5.1-9.3,7.1c-16.3,9.7-21.5,24.6-21.1,42.6
	c0.3,17.6-1.6,21.2-18.1,27.2c-36.3,13-43,41.2-45.7,68.6c-0.9,9.6-0.7,19.3,0.1,28.9c0.9,9.9-3.8,15.9-11.3,20.9
	c-23.9,15.9-30,33.2-21.2,59.5c6.4,19,3.3,24.8-16.9,31.2c-11.9,3.8-24.6-3.7-26.6-15.8C767.2,1211.3,767.2,1206.5,766.9,1201.8
	L766.9,1201.8z"/>
<path d="M1836.1,978.6c-0.8,13.5-3.1,27.1-1.9,40.4c1.1,12.4-2.7,22.6-7.1,33.4c-7,17.2-8.4,35.4,0.5,52c7,13.1,9,26.8,9.7,40.7
	c2,38.6,16.9,71.9,38.2,103.5c11.1,16.4,19.5,34.8,27.5,53c2.1,4.6-0.1,12.8-3.1,17.7c-8.3,13.6-9.7,17.1,0.3,29
	c17.3,20.7,9.2,57.5-2.6,73.6c-4.7,6.4-10.3,12.1-19.3,10.7c-18.7-2.8-26.7,11.7-36.7,22.6c-2.8,3.1-4.2,7.5-6.8,10.8
	c-10.3,13.2-12.8,13.4-26.1,3.2c-7.2-5.6-14.4-11.4-22.3-15.8c-12.9-7.1-34.8-3.6-45.1,7.1c-23.8,24.8-26.2,26.7-70.1,11
	c-8.6-3.1-16.9-7-25.3-10.7c-7.2-3.2-9.1-9.1-5.8-16c12.1-25.9,2.3-48-25.2-58c-9.9-3.6-20-8.2-28.3-14.6
	c-5.8-4.5-8.3-13.2-12.9-19.4c-7.6-10.3-16.9-17.4-30.9-18.6c-5.2-0.4-11.7-7.2-14.1-12.7c-4.8-11-7.5-23-10.6-34.7
	c-0.9-3.4,0.2-7.3-0.1-10.9c-0.7-11,0.5-22.5-2.7-32.7c-5.8-18.4-5.5-36.2,1.4-53.6c8.3-20.9,7.2-42.2,4.5-63.5
	c-0.6-4.4-4.7-8.6-7.9-12.2c-8.5-9.5-8.5-13.8-1.2-23.8c6.9-9.5,12.7-19.8,19.4-29.4c6.8-9.8,3.6-20,2.3-30.5
	c-1.9-14.8,3.7-24.2,17.9-28.7c11.8-3.7,24.1-5.5,36.1-8.5c10.7-2.7,21.1-7.1,31.9-8.6c11.8-1.7,24,0,35.8-1.4
	c7.3-0.9,15.1-3.8,21.2-8c7.5-5,14.2-9.5,23.8-10c5.2-0.3,10.7-4.2,15.2-7.6c6.8-5,13-10.8,19.3-16.5c6.9-6.1,13.8-12.3,20.4-18.7
	c4.8-4.7,9.5-5.6,15.9-2.5c16.1,7.7,31,17.8,49.6,20.5c8.7,1.3,13.6,10.7,14.4,20.1c0.5,5.9,0.1,12,0.1,18
	C1835.8,978.6,1835.9,978.6,1836.1,978.6L1836.1,978.6z"/>
<path d="M1434.3,535c-39.2,0.4-69.1,10.9-95.1,31.7c-14.2,11.4-28.5,23-41.3,36c-12.3,12.3-28.1,14.3-43.2,16.1
	c-20.1,2.4-40.7,2.7-61,1.8c-11.4-0.5-22.7-5.5-34-8.3c-4.8-1.2-9.5-2.6-14.4-3.2c-9-1.2-15.4-4.8-19.6-13.7
	c-8.8-18.5-25.7-26-44.8-25.9c-17.5,0.1-27.1-9.3-35.1-22.5c-6.6-10.9-12.9-21.9-19.4-32.8c-4.7-8-2.7-14.7,3-21.5
	c6-7.2,10.2-16.1,16.9-22.4c5.7-5.5,13.5-9,20.9-12.3c4.3-1.9,9.6-1.4,14.4-2.3c10.6-2,17.7-9.1,18.2-19.9
	c0.4-8.7,0.1-17.6-1.7-26.1c-2.3-11.3-12-16.8-22-18.1c-11-1.5-15.9-7.9-20.1-16.4c-2.3-4.7-3.5-10-6.4-14.2
	c-8.2-11.7-5.5-23.9-1.2-35.5c1.5-4.1,7.1-7.5,11.6-9.7c17.2-8.4,34.9-15.9,52.2-24.3c9.9-4.9,18.7-13.2,29-15.9
	c16.7-4.3,34-5.4,51.6-0.9c17.3,4.5,35.4,6.1,53.2,8.9c23.5,3.6,46.9,7.6,70.5,10.3c11.9,1.4,24.1-0.1,36.2,0.3
	c14.4,0.5,28.8,1.5,43.1,2.8c12.4,1.1,24.7,3.2,37,4.6c32.6,3.5,65.3,7.9,98.1,4.7c28-2.8,56-6.1,83.8-10.5
	c15.2-2.4,16.9,0.3,16.2,15.9c-0.5,11.4,4.2,23.4,8.3,34.5c6.3,16.8,15.7,32.4,21,49.5c5,16.2,0.1,32-10.9,45.1
	c-10.2,12.3-23,21.2-39.2,23.1c-16,1.9-27.7,11.6-37.6,22.1c-24.7,26.5-56.8,35.2-90.3,41.2C1464.5,530.2,1446.5,532.9,1434.3,535
	L1434.3,535z"/>
<path d="M565.7,270.8c-3.1,7-5.2,14.7-9.6,20.7c-5.9,8.1-9.1,16.3-8.6,26.3c0.8,14.8,1.4,29.7,1.7,44.5c0.2,13.3,7.8,22.6,16.3,31.3
	c5.7,5.9,7.5,11.9,3.5,19.3c-7.1,13-5.1,27.2-2,40.2c2.7,11.3,2.2,19.6-5.5,28.4c-9.2,10.5-16.5,22.7-26.2,32.5
	c-4.8,4.9-13,7.4-20.1,8.8c-15.4,2.9-22,12.2-18.5,27.1c3.6,15.2,10,28,23.5,37.2c9.1,6.1,7,16.4-4.4,19.7
	c-11.2,3.2-20.8,8.4-28,17.2c-5.4,6.7-9.2,14.8-14,22c-11.3,17.1-38,20.5-52,6.1c-15.5-16-28.9-15.4-45.8,2.9
	c-11.4,12.3-24.8,20.7-42.8,19.2c-5.3-0.4-10.9,1.3-16.2,2.8c-8.1,2.3-16.9,4.1-24,8.4c-6.8,4.1-12.8,10.5-17.2,17.1
	c-8.1,12.1-16.8,15.2-30.6,11.7c-10.5-2.6-22-4.2-32.7-3c-13.7,1.5-17.3,14.9-23.1,25.2c-5.8,10.2-11.8,20.4-18.4,30
	c-4.6,6.7-11.9,8.4-19.4,5.2c-5.1-2.1-10-5-14.4-8.3c-14-10.4-27.6-21.2-41.5-31.7c-5.7-4.3-8.2-8.7-4.2-15.9c3.3-6,4.2-13.3,7.8-19
	c2.7-4.1,7.7-7.6,12.5-9.3c16.4-6.1,30-14.9,34.3-33.1c1-4.3,0.7-10.4-1.7-13.6c-8.5-11.2-8.6-23.1-6.8-36.2
	c3.4-23.8,2.6-47.4-6.8-70.2c-2.6-6.2-3.6-13.1-4.7-19.8c-1-6.2,4.2-10.8,10.5-9.1c4.1,1.1,7.8,3.5,11.6,5.4
	c9.1,4.6,17.6,1.2,19.5-8.6c3.1-15.7,6.3-31.4,7.9-47.3c1-9.8-4.3-17.9-11.5-25c-16.8-16.3-15.9-21.8,6.6-30.4
	c16.8-6.5,34.5-10.7,51.8-16.1c12-3.8,23.6-9.6,35.9-12c28.2-5.5,57-8.3,85.1-14.4c34.8-7.6,71.2-12.2,99.9-36.5
	c8.9-7.6,16.8-16.5,25.2-24.7c11.7-11.6,22.2-25,35.5-34.4c12.5-8.8,27.7-14.1,42.1-19.8c8.1-3.2,13.3,2.2,15.2,9.8
	c1.5,6,1.8,12.3,2.7,18.5C564.6,270.2,565.2,270.5,565.7,270.8L565.7,270.8z"/>
<path d="M1632.8,792.9c1.4-24-2.4-41.2-18.7-54.1c-7.2-5.7-13.1-13.2-19.6-19.8c-7-7.2-15.1-11-25.6-10.2
	c-12.7,1-20.8-4.6-22.1-16.9c-1.8-16.2-11.5-27.5-20.7-39.3c-12.2-15.8-24.8-31.6-29-51.5c-2.4-11.5-3.6-23.8-2.3-35.4
	c0.5-5.1,7.7-11.3,13.2-13.6c13.7-5.8,28.1-10.6,42.6-13.9c19.2-4.3,32.1-17.6,44.1-31c10.8-12.1,25.8-13,38.5-19.7
	c25.1-13.4,49.8-26.7,57.3-58.1c4.7-19.8-1.9-36.6-9.3-53.8c-5.8-13.4-11.1-27-17.4-40.2c-3.8-8.1-0.4-13.3,5.2-18
	c4-3.3,8.4-6.2,13-8.6c8.2-4.3,13.7-9.8,15.5-19.7c2-10.7,6.8-12.6,16-6.7c8.5,5.5,15.9,12.6,23.6,19.3c14.7,12.7,29.8,24.7,48.6,31
	c18.4,6.1,26.1,20.8,25.8,38.5c-0.3,17.2-3.6,34.4-6.4,51.4c-3.1,19.3,2.7,36.7,10.4,53.7c9.6,21.1,21,41.5,28.9,63.3
	c5.8,16.1,6.2,34,10.9,50.6c4.2,15,11.1,29.2,16.5,43.9c3.6,9.7,6.8,19.6,10.1,29.4c2.1,6.2,5.1,12.3,5.7,18.6
	c0.9,9.6,0.6,19.4-0.1,29.1c-0.8,12.4-3.2,24.6-3.5,37c-0.6,20-6.1,26.1-25.1,31.1c-24.4,6.4-46,18.2-61.8,38.9
	c-3.3,4.3-7.4,8.9-12.2,11c-16.6,7.3-21.6,23-28.8,37.2c-6.6,12.9-13.6,15.2-24.3,5.6c-12.1-10.9-26.1-16.4-41.6-18.5
	c-7.5-1-16.6,2.2-22.7-0.9c-8.4-4.3-16-11.9-21.3-19.9C1637.4,819.3,1630.3,804.9,1632.8,792.9L1632.8,792.9z"/>
<path d="M736,1186.5c0,6.3-1,10.3,0.2,13.6c5.5,15.8-3.5,21.5-18.1,22.8c-13.4,1.2-24,8.6-28.5,22.4c-7,21.3-15,42.4-22.8,63.4
	c-13.5,36.4-36.5,67-59.5,97.7c-5,6.7-8.5,13.6-8.1,22.6c0.2,4-3.3,9.2-6.7,12.1c-8.8,7.6-13,15-9.5,27.5
	c3.3,11.6,0.9,22.9-10.4,31.3c-7,5.2-12,12.9-18.2,19.3c-11.5,12-22,10.4-29.5-4.4c-10.4-20.4-23.2-38.1-45.6-47.2
	c-9.2-3.8-10-11.1-2.9-17.8c6.9-6.6,14.5-12.6,21.5-19.2c7.9-7.5,8.6-14.9,2.3-23.8c-4.7-6.7-10-12.9-15.2-19.3
	c-10.8-13.2-24.5-14.4-40.3-11.1c-9.7,2.1-19.5,9.1-30,1.2c-12.1-9.1-24.8-17.3-37-26.1c-11.1-7.9-22.7-14.2-36.9-14.6
	c-22.7-0.6-30.2-8.3-37.1-31.1c-4.8-16-15.8-27.9-32.7-33c-7.2-2.1-14.5-3.8-21.6-5.9c-9.1-2.7-10.8-9.6-9.1-18.7
	c2.9-15.9,4.8-32.2,4.8-48.3c0-13.5,3.8-23,14.5-31.5c11.5-9.1,23.6-12.9,37.9-13.5c4.8-0.2,10.2-4.1,14.2-7.5
	c8.9-7.8,18.7-8.4,28.3-3.6c11.6,5.9,19.6,2.7,27.4-6.3c9.1-10.5,21.6-19.1,27.6-31c7.5-15.1,19.5-25.5,29.6-37.9
	c4.9-6.1,10.5-7.3,18-2.2c10.3,7.1,21.5,13,32.5,19.2c10.2,5.8,17.1-0.4,22.8-7.5c7.9-9.8,14.8-11.4,25.1-4.9
	c22.7,14.3,45,29.1,68.3,42.3c23.3,13.2,47.3,11.7,71.5,0.7c6.7-3.1,15.1-4,22.6-3.6c10,0.5,15.4,5.9,14.9,17.6
	c-0.6,14.7,8.3,25,20.7,31.9C731.6,1168.2,738.6,1175.9,736,1186.5L736,1186.5z"/>
<path d="M1019.8,317.9c-0.2,1.2-0.7,4.8-1.6,8.2c-4.4,15.4-3.8,29.5,7.3,42.6c4.2,5,6.4,11.9,8.7,18.3c4.3,11.9,11.1,21.3,22.7,27.4
	c3.1,1.6,5.5,6.2,6.3,9.9c0.3,1.5-4.2,6-6.7,6c-21.6,0.6-32.3,15.3-42.8,31.2c-6.6,10.1-14.4,19.5-22.3,28.7
	c-8.3,9.6-26.5,9.5-35.3,0.2c-4.5-4.8-8.8-9.8-13-15c-8.7-10.7-20.6-12.6-33.3-12.2c-16.8,0.5-32.5-2.6-49-6.6
	c-28.2-6.9-57.6-15.1-87-9.1c-17.1,3.5-32.8,13.6-41.8,30c-5.5,9.9-12.1,14.9-23.7,13.6c-6.9-0.8-14-0.5-20.9,0
	c-3.4,0.2-7.8,1-9.9,3.3c-10.9,12.3-25.2,9.7-38.5,8.3c-16.9-1.7-32.7-7.1-40.6-24.1c-2.4-5-3.5-11-3.8-16.6
	c-0.4-5.8,1.4-11.8,1.4-17.6c-0.1-9.2-0.7-17.8,5.5-26.1c6.5-8.8,2.7-18.9-4.4-24.8c-17-13.9-19.2-32.7-21-52.1
	c-0.3-3.9-2.2-8-1.5-11.6c1.5-7,2.4-16.4,7.2-20.1c13.1-9.9,13.8-22.8,11.7-36.2c-2-12.8-6.1-25.2-9.3-37.8c-2.2-8.8,4-12.9,10-16.2
	c12.4-6.8,24.9-13.6,37.8-19.2c24.4-10.6,49.3-20,73.7-30.7c30.5-13.5,62.5-19,95.4-20c14.3-0.5,28.5-0.4,42.8-1
	c10-0.4,16.4,5.2,17.4,13.7c3.8,33.3,22,59.8,39.4,86.7c9.7,14.8,25.2,19.9,41.7,22.4c15.6,2.4,31.3,4.1,46.9,6.9
	C1004.1,280.9,1019.9,300.7,1019.8,317.9L1019.8,317.9z"/>
<path d="M712.4,517.4c4.4,0.6,10.6,1.6,16.8,2.2c8.3,0.7,14.9-2.7,18.9-10c8.9-16.4,23.4-26.5,39.5-34c13.4-6.2,27.8-2,41.5,0.8
	c19.8,4.1,39.5,9,59.3,13.4c3.3,0.7,6.9,1.5,10.2,1c9.7-1.2,18.8,1,24.9,8.1c12.6,14.9,30,17.6,47.4,20.6c8,1.4,15.9,3.1,24,3.8
	c8.9,0.8,13.8,6.1,16.7,13.4c10.4,26.7,32.2,40.9,56.6,52c4.6,2.1,11,0.7,15.2,3.2c7.7,4.5,15.5,9.8,21.3,16.5
	c5.8,6.6,5.1,15.1,1.7,23.8c-5,12.6-7.8,26.1-13,38.7c-3,7.1-8,13.8-13.5,19.3c-12.2,12.2-20.9,26-23.9,43.1
	c-3.3,18.9-7.2,37.8-9.8,56.8c-1.7,12-2,24.3-2.1,36.4c-0.1,9.4-3.1,15.8-11.6,20.7c-9,5.2-17.4,11.7-25.6,18.2
	c-7,5.6-14.3,5.6-21.2,1.7c-15.4-8.8-31.6-11.7-49.2-10.7c-10.1,0.6-17.8-6-23.6-13.9c-9.1-12.3-19.8-19.7-36.3-20
	c-10.7-0.2-21.4-5.3-31.7-9.1c-8.6-3.2-16.6-7.2-26.4-4.6c-3.4,0.9-7.8-0.5-11.4-1.9c-16.7-6.6-33.6-12.9-49.8-20.6
	c-9.1-4.3-16.7-11.6-25.3-16.9c-4.6-2.8-9.8-4.8-14.9-6.6c-9.9-3.4-12.2-10.5-5.4-18c13-14.4,12.7-33.1-0.8-47.9
	c-2.9-3.2-5.8-6.5-9.2-9.1c-12.4-9.5-15.7-22.6-15.8-37.3c0-6.5-2.7-13.5-1.2-19.5c1.9-7.5,6.1-14.8,10.5-21.4
	c6.8-10.3,6.8-19.8-1.5-29.4c-2.2-2.5-4.8-4.6-7-7.1c-8.2-9.2-7.5-12.9,0.4-22.5c3.7-4.5,5.9-11.1,6.6-16.9
	C695,521,698.2,517.2,712.4,517.4L712.4,517.4z"/>
<path d="M1096.8,1299.5c-10.8-0.8-18.3-5-23.4-13.6c-4.3-7.3-8.5-14.7-13.6-21.4c-13.4-17.7-33.8-20.3-52.3-11.8
	c-16.1,7.4-28.5,6.8-42.6-4.4c-10.8-8.6-24.5-11.7-39-7.7c-4.4,1.2-9.9,0.2-14.5-1c-17-4.6-33.6-10.7-50.8-14.4
	c-25.5-5.5-26.8-29.3-21.6-46.3c1.7-5.6,10.2-10.7,16.6-13c17.3-6.2,19.7-19.4,19.5-34.9c-0.1-11.3,0.8-22.6,0.8-33.9
	c-0.1-24.7,8.7-43.1,33.7-51.4c22.1-7.3,30.7-23.6,29.4-46.1c-0.7-12.1,3.8-21.4,14.8-27.4c5.7-3.2,12-6.2,16.2-10.9
	c4.5-5,8.3-11.5,9.7-18c2-8.7,4-15.1,14.5-16.2c15.4-1.6,21.4-8.2,23.7-23.5c0.5-3.2,1.1-6.4,2.2-9.4c3.4-8.9,13.4-11.8,21-6.1
	c2.9,2.2,5.5,4.9,7.8,7.7c15.8,18.6,35.9,24.7,58.5,17c12.5-4.3,22.2-1.7,33.5,2.9c16,6.4,33,10.1,49.3,15.7
	c13.3,4.6,16.4,13,9.4,25.1c-6.6,11.3-6.1,23-0.3,33.5c7.2,13,18.4,21.9,34.3,23.8c14.9,1.7,29.8,4,39.5,17.7
	c9.1,12.9,4.2,28.1-14.1,29.5c-16.2,1.3-23.2,10.3-25.7,26.3c-2.5,16.2,3.3,30.5,6.4,45.6c2.2,10.7,5,22.8,2.1,32.7
	c-7.5,25-22.5,45.3-48,55.7c-19.2,7.8-35.8,19.8-50.6,33.9c-5.9,5.7-9.9,13.6-14.1,20.9C1121.6,1289,1111.1,1297.5,1096.8,1299.5
	L1096.8,1299.5z"/>
<path d="M1535.7,1358.7c7.7,4.4,16.1,6.6,19.9,12c12.5,17.8,30.1,27.9,48.7,37.1c13.2,6.5,15.9,13.9,5.4,23.9
	c-22.3,21.1-9.8,32.1,11.2,43.8c16.9,9.4,35.4,16.3,53.7,23.1c12.8,4.7,26.1,9,39.6,10.6c14.9,1.8,27.6-5.1,38.4-15.9
	c5.9-5.9,13-11.1,20.4-14.9c7.2-3.7,19.5,3,25.2,13c4.4,7.8,0.7,13.3-4.9,19.9c-11,13-19.6,28.1-30.3,41.4
	c-7.9,9.8-18.2,17.6-26.4,27.2c-6.2,7.3-11.3,15.8-16.1,24.3c-5.7,10.1-9.8,21.2-15.8,31.1c-5.4,8.9-12.1,17.1-18.9,25.1
	c-19.3,22.6-27.3,50.2-30.9,78.4c-1.2,9.3,8.2,19.9,12.7,29.9c3.4,7.4,8.6,14.6,9.7,22.4c1.3,8.9-1.6,18.4-1.7,27.6
	c-0.1,6.3,1.2,12.6,1.8,18.8c0.5,4.7,0.8,9.4,1.2,14.1c-4.6-0.6-9.3-0.5-13.6-1.8c-17.7-5.3-35.5-10.1-52.7-16.8
	c-12.7-4.9-25-11.4-36.3-19c-5.5-3.7-8.5-11.3-12-17.4c-13.7-23.7-31.8-42.1-59.6-48.1c-5.8-1.2-12.9,1.9-18.1-0.1
	c-21-8.3-39.9-19.3-46.5-43.5c-1.4-5-3.6-9.8-6-14.3c-8.3-15.9-4.3-32.9-4.4-49.5c0-13.9-2.5-27.5-11.1-38.3
	c-10.3-12.9-10.6-28.1-12-42.8c-1.5-15.3-0.9-30.9-0.4-46.3c0.7-19.1,5.2-36.9,21.9-49c3.6-2.6,7-6,11.1-7.3
	c20.4-6.4,34.2-20.9,47.1-36.8c12.6-15.5,25.2-30.6,31.4-50.4C1519.1,1365.1,1528.6,1362.8,1535.7,1358.7L1535.7,1358.7z"/>
<path d="M1385.4,1734.2c-11.5-2.2-18.7,4.5-25.9,11.9c-5.2,5.4-10.6,11-17,14.9c-4.3,2.6-10.8,4.4-15.4,3.2
	c-19.2-4.8-38-11.3-57.2-16.2c-16.3-4.1-31.8,1.7-47.1,6.6c-22,7.1-38,21.6-48.6,41.8c-5.2,9.9-13.8,9.4-22.1,8.2
	c-7-1-12.8-6.2-12-13.5c2.5-22.1-10.3-36.5-23.9-50.5c-21.7-22.3-36-48.7-44.7-78.4c-5.5-18.6-17.9-32.9-30.6-47
	c-7.1-7.9-15.2-15-21.3-23.6c-7-9.8-5-17.6,4.3-25.2c10.4-8.5,20.6-17.1,31.2-25.3c7.7-5.9,11.4-13.7,8.2-22.5
	c-3.4-9.4,0.4-15.6,5.4-22.5c4.9-6.7,9.3-13.8,13.3-21c3.3-6,7-10.2,14.2-12.4c8-2.4,15.6-6.7,22.6-11.4c17.7-12,37-13.3,56.9-8.9
	c9.3,2.1,19.7,4.1,26.9,9.7c5.8,4.6,10.8,14.5,10.5,21.9c-1.2,28.4,18.4,41.4,41.2,47.3c16.1,4.2,30.1,1.9,44.3-8.3
	c10.4-7.5,24.1-10.4,36.4-15.3c7.4-3,14.7-6.5,22.4-8.7c4.5-1.3,10.8-2.3,14-0.1c2.9,1.9,3.7,8.4,3.9,12.9c0.8,18,0.9,35.9,1.4,53.9
	c0.5,19.1,8.6,35.6,16.7,52.5c3.9,8.1,4.2,18.6,4.1,27.9c-0.1,26.3,5.8,51.1,16.9,74.8c6.8,14.3,1.8,22.7-14,23.3
	C1395.5,1734.3,1390.4,1734.2,1385.4,1734.2L1385.4,1734.2z"/>
<path d="M200.1,1091.7c0.4-15.1-5.4-26.6-15.1-36.1c-11.9-11.8-15.4-23.2-1.4-37c4.3-4.2,6.2-11.2,8.3-17.3c2.4-7,5.7-14.4,5.4-21.5
	c-0.5-10.8-2.5-22.1-6.4-32.2c-3.9-10.3-8.7-19,0.9-29c2.3-2.4,0.5-9-0.1-13.6c-0.2-1.7-2.1-3.3-3.5-4.6
	c-24.6-21.4-17.1-25.1-5.1-55.8c2.7-6.8,2.3-16.3-0.4-23.1c-2.9-7.6-2.7-12.2,2.3-18.5c6.7-8.6,12.1-18.3,17.9-27.6
	c6.2-10,11.8-20.5,18.6-30.1c6.1-8.6,15-9.5,24.5-5.5c23.1,9.6,45.1,4.2,57.2-16.8c11.4-19.8,30.3-20.1,48.7-22.1
	c9.7-1,19.3-1.3,27.4-7.6c6.3-4.8,8.8-0.7,10.2,4.7c0.6,2.2,0.1,4.6,0.1,7c-0.1,9-0.9,18.1,0,27c1.1,10.5-2.6,18.3-9.5,25.6
	c-11.1,11.7-13.8,28.1-5.7,41.5c8,13.3,11.5,25.2,2.9,40.2c-3.1,5.4-0.6,16.2,2.8,22.7c8,15.4,6.5,30.2,1.5,45.6
	c-4.1,12.6-6.8,25.3,0.6,37.8c0.8,1.4,1.4,3,2.5,4.2c12.3,13.8,24.7,27.4,36.9,41.2c4.1,4.6,8.2,9.5,11.1,14.8
	c6.2,11.6,17,14.7,28.5,18.2c7.2,2.2,14.7,6.6,19.3,12.3c2.8,3.4,2.4,12.3-0.3,16.5c-4.3,6.9-11.6,6.1-17.7,0.4
	c-13.2-12.2-29.6-15.9-46.7-18c-8.7-1-14.2,3.6-18.5,10.5c-10.8,17.3-21.6,34.7-32.7,51.7c-3.9,6-8.6,11.5-13.3,16.8
	c-6.2,7-14.8,6.4-22.2,4c-15.1-4.9-28.2-3-42.2,4.7c-13.9,7.6-29.2,12.8-44.4,17.6c-3.1,1-8.9-3.9-12.3-7.3
	c-7-6.9-12.7-15.2-20.1-21.7C203.5,1105.6,197.9,1100.3,200.1,1091.7L200.1,1091.7z"/>
<path d="M1497.7,1320.6c2.9,17.4-9,32.3-14.5,48.8c-6.2,18.9-18.2,34.7-33.9,47c-8.6,6.8-18.9,11.4-27.9,17.8
	c-10.4,7.3-20,15.8-30.6,22.7c-4,2.6-10.9,4.5-14.9,2.9c-11.2-4.6-20.9-3-31.4,1.7c-9.2,4.1-19.3,6.1-28.5,10.2
	c-11.9,5.2-23.3,11.6-35,17.2c-3.8,1.8-7.9,3.1-11.9,4.7c-16.3,6.5-22.1,3.1-25.2-13.5c-3.9-20.6-12.6-38.7-30.7-50.6
	c-12-8-25.9-10.5-40.2-10.4c-12.5,0.1-17.7-4.4-19.1-17.2c-1.6-14.7-1.9-29.7-4.1-44.3c-1.7-11.4-4.3-23.1-8.7-33.7
	c-3.5-8.4-3.2-15,1.9-21.8c17.1-23.2,36.4-43.2,64.7-53.6c20.4-7.5,34.8-23.6,46.2-41.7c8.9-14.1,17.2-17.1,31-7.1
	c13.5,9.8,26.2,20.8,39.3,31.1c12.4,9.7,25.7,14.4,42.1,11.4c5.9-1.1,13.5,3.5,19.5,7c5.6,3.3,10.6,8.1,14.9,13
	c17,19.8,40.2,17.5,62.2,16.6c20.3-0.8,34,9.2,34.8,29.4C1497.8,1311.7,1497.7,1315.4,1497.7,1320.6L1497.7,1320.6z"/>
<path d="M1121,1377.7c0.7,8.5,2.6,17.1,1.8,25.5c-0.4,4.9-3.9,11.2-8,13.9c-24.1,15.6-48.3,30.7-67.4,52.7
	c-6.5,7.6-15.5,13-16.3,24.2c-0.2,2.8-0.5,5.7,0,8.4c2.1,11.8-1.1,21-10.8,28.7c-10.3,8.2-20.6,16.6-29.5,26.2
	c-10.2,10.9-8.7,22.2,1.4,39.6c3.7,6.4,10,11.3,15.1,16.9c11.3,12.6,23.4,24.7,33.7,38.2c9.5,12.5,6.3,33-5.2,44
	c-11,10.5-22.2,20.8-33.3,31.2c-7,6.5-14.7,5.8-19.7-2.2c-5.2-8.2-10.1-16.7-14.8-25.3c-7.6-13.8-16.5-25.2-32.5-31
	c-12.4-4.5-19.4-14.7-18.3-29.2c1.1-15.2,0.1-31-14.2-39.7c-10.2-6.2-22.7-9.1-34.4-12.5c-13.2-3.8-24.7-9.8-35-19
	c-12-10.7-7.7-28,4-35.8c9.8-6.5,19.4-13.7,29.8-19c16.3-8.3,17.2-23.3,18.6-38.4c0.1-1.3,0.3-2.7,0-4c-4-18.6,6.7-29,21-36.9
	c8.4-4.7,10.6-11.3,9.1-20.3c-2-11.6-4.5-23.3-4.8-34.9c-0.5-16.2-3.9-32.7,2.9-48.4c3.9-9,8.7-17.5,12.6-26.5
	c2.8-6.5,5.9-13.1,7-19.9c2.2-13.3,11-19.3,23.3-14.1c9.3,3.9,18,9.2,27.4,12.7c13.5,5.1,26.6,5.1,38.6-5.2
	c7.2-6.2,16.6-1.2,22.6,11.8c8.1,17.5,22.2,28,39.5,34.9c4.5,1.8,9.5,2.8,14.3,3.2c11,1,18.6,7.6,19.9,18.7
	c1.3,10.5,2.1,21,3.1,31.5L1121,1377.7L1121,1377.7z"/>
<path d="M754.6,1245.4c2.2,1.1,7.5,2.8,12,5.8c14.9,9.8,30.1,10.6,46.8,4.8c26.5-9.1,53.1-7.1,79,3c9.6,3.7,14,13.1,10.9,22.6
	c-4.9,14.8-10,29.5-15.7,43.9c-8.9,22.7-11,45.6-3.8,69.1c2.3,7.4,1.5,14-4.9,18.4c-17.8,12.5-20.8,31.7-23.1,50.9
	c-2.2,18-4.1,29.2-26.5,35.5c-14.7,4.2-19.6,17.5-26,29.2c-4.2,7.7-7.2,16-11.4,23.7c-4.6,8.5-15,11.5-23.4,6.9
	c-6.3-3.4-12.5-7.2-18.4-11.3c-6.4-4.5-6.1-10.3,0.1-15.4c3.7-3,7.7-5.8,10.7-9.3c9.8-11.8,8.2-14.9,1.4-27
	c-5.6-10-16.1-14.1-26.5-12c-13.2,2.5-26.5,6.3-39.7,6.2c-7-0.1-15.5-5.7-20.6-11.3c-11.2-12.4-22.1-24-38.2-30.4
	c-14-5.6-16.1-12.9-5.8-25.9c16.5-20.9,31.8-42.8,47.1-64.6c5.4-7.6,12.9-16.2,13.2-24.5c0.6-18.8,14.6-31.1,18.9-47.7
	c0.5-1.9,1.1-3.8,1.2-5.7C713.6,1258.7,729,1245,754.6,1245.4L754.6,1245.4z"/>
</svg>
