<svg id="visual" viewBox="0 0 960 540" width="960" height="540" xmlns="http://www.w3.org/2000/svg" xmlns:xlink="http://www.w3.org/1999/xlink" version="1.1"><rect x="0" y="0" width="960" height="540" fill="#040313"></rect><defs><linearGradient id="grad1_0" x1="43.8%" y1="0%" x2="100%" y2="100%"><stop offset="14.444444444444446%" stop-color="#090636" stop-opacity="1"></stop><stop offset="85.55555555555554%" stop-color="#090636" stop-opacity="1"></stop></linearGradient></defs><defs><linearGradient id="grad1_1" x1="43.8%" y1="0%" x2="100%" y2="100%"><stop offset="14.444444444444446%" stop-color="#090636" stop-opacity="1"></stop><stop offset="85.55555555555554%" stop-color="#0a0525" stop-opacity="1"></stop></linearGradient></defs><defs><linearGradient id="grad1_2" x1="43.8%" y1="0%" x2="100%" y2="100%"><stop offset="14.444444444444446%" stop-color="#040313" stop-opacity="1"></stop><stop offset="85.55555555555554%" stop-color="#0a0525" stop-opacity="1"></stop></linearGradient></defs><defs><linearGradient id="grad2_0" x1="0%" y1="0%" x2="56.3%" y2="100%"><stop offset="14.444444444444446%" stop-color="#090636" stop-opacity="1"></stop><stop offset="85.55555555555554%" stop-color="#090636" stop-opacity="1"></stop></linearGradient></defs><defs><linearGradient id="grad2_1" x1="0%" y1="0%" x2="56.3%" y2="100%"><stop offset="14.444444444444446%" stop-color="#0a0525" stop-opacity="1"></stop><stop offset="85.55555555555554%" stop-color="#090636" stop-opacity="1"></stop></linearGradient></defs><defs><linearGradient id="grad2_2" x1="0%" y1="0%" x2="56.3%" y2="100%"><stop offset="14.444444444444446%" stop-color="#0a0525" stop-opacity="1"></stop><stop offset="85.55555555555554%" stop-color="#040313" stop-opacity="1"></stop></linearGradient></defs><g transform="translate(960, 0)"><path d="M0 486C-35.4 482.8 -70.8 479.5 -107.7 471.9C-144.6 464.2 -182.9 452.1 -201.3 418C-219.8 384 -218.3 328 -244.4 306.5C-270.5 285 -324.2 298 -359.6 286.8C-395.1 275.6 -412.4 240.3 -429.8 207C-447.1 173.6 -464.4 142.3 -473.8 108.1C-483.2 74 -484.6 37 -486 0L0 0Z" fill="#07041c"></path><path d="M0 324C-23.6 321.8 -47.2 319.7 -71.8 314.6C-96.4 309.5 -121.9 301.4 -134.2 278.7C-146.5 256 -145.5 218.7 -162.9 204.3C-180.3 190 -216.1 198.6 -239.8 191.2C-263.4 183.8 -275 160.2 -286.5 138C-298.1 115.8 -309.6 94.9 -315.9 72.1C-322.1 49.3 -323.1 24.7 -324 0L0 0Z" fill="#0a052d"></path><path d="M0 162C-11.8 160.9 -23.6 159.8 -35.9 157.3C-48.2 154.7 -61 150.7 -67.1 139.3C-73.3 128 -72.8 109.3 -81.5 102.2C-90.2 95 -108.1 99.3 -119.9 95.6C-131.7 91.9 -137.5 80.1 -143.3 69C-149 57.9 -154.8 47.4 -157.9 36C-161.1 24.7 -161.5 12.3 -162 0L0 0Z" fill="#090636"></path></g><g transform="translate(0, 540)"><path d="M0 -486C29.3 -446.4 58.5 -406.8 89.9 -393.9C121.3 -381 154.8 -394.8 192.2 -399.1C229.6 -403.4 270.8 -398.2 303 -380C335.2 -361.7 358.5 -330.5 368.2 -293.7C378 -256.9 374.3 -214.5 373.9 -180.1C373.5 -145.6 376.6 -119 395.8 -90.3C415.1 -61.6 450.5 -30.8 486 0L0 0Z" fill="#07041c"></path><path d="M0 -324C19.5 -297.6 39 -271.2 59.9 -262.6C80.9 -254 103.2 -263.2 128.1 -266.1C153.1 -269 180.5 -265.5 202 -253.3C223.5 -241.2 239 -220.3 245.5 -195.8C252 -171.2 249.5 -143 249.3 -120C249 -97.1 251 -79.4 263.9 -60.2C276.7 -41.1 300.4 -20.5 324 0L0 0Z" fill="#0a052d"></path><path d="M0 -162C9.8 -148.8 19.5 -135.6 30 -131.3C40.4 -127 51.6 -131.6 64.1 -133C76.5 -134.5 90.3 -132.7 101 -126.7C111.7 -120.6 119.5 -110.2 122.7 -97.9C126 -85.6 124.8 -71.5 124.6 -60C124.5 -48.5 125.5 -39.7 131.9 -30.1C138.4 -20.5 150.2 -10.3 162 0L0 0Z" fill="#090636"></path></g></svg>