<svg id="visual" viewBox="0 0 960 540" width="960" height="540" xmlns="http://www.w3.org/2000/svg" xmlns:xlink="http://www.w3.org/1999/xlink" version="1.1"><rect x="0" y="0" width="960" height="540" fill="#040313"></rect><g transform="translate(490.35033147071215 286.6219653835451)"><path d="M126.1 -194.3C164.4 -171.7 196.8 -138.2 221.2 -97.3C245.5 -56.5 261.8 -8.2 244.9 27.6C227.9 63.5 177.7 87 140.3 110.6C102.8 134.1 78 157.7 46.5 174.3C14.9 190.9 -23.4 200.5 -63.2 197.2C-103.1 193.8 -144.5 177.4 -173.5 148.1C-202.5 118.7 -219 76.3 -239.2 26.1C-259.4 -24.2 -283.2 -82.2 -267.4 -124.3C-251.5 -166.4 -196 -192.6 -144.9 -209.2C-93.7 -225.8 -46.9 -232.9 -1.4 -230.7C44 -228.4 87.9 -216.8 126.1 -194.3" fill="#d0ace3"></path></g></svg>