<svg id="visual" viewBox="0 0 960 540" width="960" height="540" xmlns="http://www.w3.org/2000/svg" xmlns:xlink="http://www.w3.org/1999/xlink" version="1.1"><rect x="0" y="0" width="960" height="540" fill="#040313"></rect><g transform="translate(466.79628093848663 264.1447972288405)"><path d="M144.6 -184.7C183.5 -170.9 208.2 -123.3 203.2 -79.9C198.1 -36.6 163.3 2.6 140.7 37.6C118.1 72.6 107.8 103.4 86.4 135.8C65 168.2 32.5 202.1 0.6 201.3C-31.3 200.5 -62.7 165 -97.1 136.8C-131.5 108.6 -168.9 87.9 -176.1 58.9C-183.2 29.9 -160.1 -7.3 -150.3 -52.3C-140.5 -97.4 -144 -150.2 -121.2 -169.3C-98.4 -188.4 -49.2 -173.7 1.9 -176.2C52.9 -178.8 105.8 -198.6 144.6 -184.7" fill="#d0ace3"></path></g></svg>