<?xml version="1.0" encoding="UTF-8" standalone="no"?>
<svg
   version="1.1"
   viewBox="0 0 1282 968"
   width="1282"
   height="968"
   id="svg16"
   sodipodi:docname="HERO.svg"
   inkscape:version="1.2.2 (732a01da63, 2022-12-09)"
   xmlns:inkscape="http://www.inkscape.org/namespaces/inkscape"
   xmlns:sodipodi="http://sodipodi.sourceforge.net/DTD/sodipodi-0.dtd"
   xmlns="http://www.w3.org/2000/svg"
   xmlns:svg="http://www.w3.org/2000/svg">
  <defs
     id="defs20" />
  <sodipodi:namedview
     id="namedview18"
     pagecolor="#ffffff"
     bordercolor="#000000"
     borderopacity="0.25"
     inkscape:showpageshadow="2"
     inkscape:pageopacity="0.0"
     inkscape:pagecheckerboard="0"
     inkscape:deskcolor="#d1d1d1"
     showgrid="false"
     inkscape:zoom="2"
     inkscape:cx="559.25"
     inkscape:cy="484"
     inkscape:window-width="3840"
     inkscape:window-height="2054"
     inkscape:window-x="2869"
     inkscape:window-y="-11"
     inkscape:window-maximized="1"
     inkscape:current-layer="g2172" />
  <path
     transform="translate(28,682)"
     d="m0 0h419l11 4 8 6 7 10 17 44 6 14 8 9 11 6 9 2 730 1 10 4 10 9 5 8 3 12v124l-3 12-6 9-9 8-11 4h-1224l-11-4-10-8-6-10-2-6v-230l4-10 7-9 11-7z"
     fill="#1C301B"
     id="path14" />
  <g
     id="g2172"
     inkscape:groupmode="layer">
    <path
       transform="translate(30)"
       d="m 0,0 h 416 l 9,3 9,6 7,8 6,14 5,14 5,12 8,20 7,9 12,7 8,2 731,1 9,3 9,7 7,9 3,9 1,7 v 581 l -3,14 -6,9 -8,7 -8,4 -5,1 L 501.98828,746.9609 493,744 484.24993,738 477.29601,729.59055 466,702 452.66703,673.45976 446.648,661.70691 l -2.35199,-3.26655 -2.00292,-2.26509 -4.20618,-2.29601 -6.54942,-1.17235 L -1,651 l -11,-4 -10,-8 -5,-8 -3,-9 V 29 l 4,-10 6,-9 11,-7 z"
       fill="#eafeea"
       id="path12"
       sodipodi:nodetypes="ccccccccccccccccccccccccccccccccccccccccccccc" />
    <ellipse
       style="fill:#eafeea;fill-opacity:1;stroke:#eafeea;stroke-width:6.24356;stroke-opacity:1"
       id="path627"
       cx="532.18799"
       cy="723.52582"
       rx="22.615812"
       ry="20.318346" />
  </g>
</svg>
