<?xml version="1.0" encoding="UTF-8"?>
<svg xmlns="http://www.w3.org/2000/svg" viewBox="0 0 655.12 655.12">
  <defs>
    <style>
      .cls-1 {
        fill: #fff;
      }

      .cls-2 {
        stroke-width: .78px;
      }

      .cls-2, .cls-3 {
        stroke: #1d1d1b;
        stroke-miterlimit: 10;
      }

      .cls-4 {
        fill: #1a203d;
      }

      .cls-5 {
        fill: #3bbfea;
      }

      .cls-3 {
        stroke-width: 1.23px;
      }

      .cls-6 {
        fill: #35342a;
      }
    </style>
  </defs>
  <g id="circle">
    <circle class="cls-1" cx="327.56" cy="327.56" r="327.56"/>
  </g>
  <g id="widelec">
    <polygon class="cls-2" points="177.96 618.73 152.52 603.98 133.71 591.1 233.75 497.17 265.63 528.79 177.96 618.73"/>
    <rect class="cls-3" x="177.62" y="479.52" width="139.58" height="66.37" transform="translate(433.31 -25.36) rotate(44.82)"/>
    <rect class="cls-3" x="248.02" y="375.18" width="33.45" height="89.6" transform="translate(372.99 -64.53) rotate(44.82)"/>
    <rect class="cls-3" x="286.55" y="413.47" width="33.45" height="89.6" transform="translate(411.18 -80.56) rotate(44.82)"/>
    <rect class="cls-3" x="323.33" y="450.02" width="33.45" height="89.6" transform="translate(447.64 -95.87) rotate(44.82)"/>
  </g>
  <g id="grzyb">
    <path class="cls-6" d="m233.85,326.75c6.67,5.45,16.35,13.71,27.21,24.38,26.68,26.24,29.92,37.04,57.94,69.37,18.63,21.5,33.8,38.76,58.34,55.4,11.19,7.59,25.84,17.36,43.7,21.22,16.58,3.58,27.14.17,40.59-4.41,25.37-8.64,38.76-23.12,43.57-28.85,8.33-9.92,21.54-25.65,21.14-53.96-.18-12.39-.43-30.39-14.69-52.07-14.57-22.15-35.63-35.81-55.28-48.55-35.05-22.73-74.57-38.31-85.23-42.52-8.51-3.36-23.99-9.15-42.62-21.71-11.89-8.01-14.62-11.74-18.71-13.73-13.72-6.68-36.36,9.19-75.97,95.42Z"/>
    <path class="cls-4" d="m258.54,345.17c22.47-31.28,58.61-81.56,98.09-106.5,3.08-1.95,18.83-11.72,28.97-30.98,3.91-7.43,8.98-17.42,6.22-30.38-2.95-13.83-13.15-23.25-19.14-28.64-22.33-20.12-49.35-23.74-60.39-25.08-53.58-6.49-93.33,20.47-109.58,31.48-11.17,7.57-53.21,37.86-71.85,96.57-4.95,15.59-12.3,39.75-6.6,72.13,3.21,18.26,8.81,50.05,35.88,68.97,5.58,3.9,22.83,14.77,41.84,12.83,24.19-2.46,30.03-23.48,56.56-60.41Z"/>
    <ellipse class="cls-5" cx="180.08" cy="329.57" rx="24.84" ry="11.89" transform="translate(-193.07 372.12) rotate(-67.85)"/>
    <ellipse class="cls-5" cx="214.1" cy="208.09" rx="24.84" ry="11.89" transform="translate(-84.46 206.77) rotate(-43.93)"/>
    <ellipse class="cls-5" cx="295.05" cy="172.68" rx="24.84" ry="11.89" transform="translate(-23.9 49.63) rotate(-9.24)"/>
    <ellipse class="cls-5" cx="274.67" cy="246.28" rx="41.32" ry="20.65" transform="translate(-56.99 407.84) rotate(-67.85)"/>
  </g>
</svg>