<svg id="visual" viewBox="0 0 960 200" width="960" height="200" xmlns="http://www.w3.org/2000/svg" xmlns:xlink="http://www.w3.org/1999/xlink" version="1.1"><rect x="0" y="0" width="960" height="200" fill="#040313"></rect><path d="M0 131L14.5 129.7C29 128.3 58 125.7 87.2 126.3C116.3 127 145.7 131 174.8 129.2C204 127.3 233 119.7 262 120.2C291 120.7 320 129.3 349 134.3C378 139.3 407 140.7 436.2 141.7C465.3 142.7 494.7 143.3 523.8 145.3C553 147.3 582 150.7 611 147.7C640 144.7 669 135.3 698 133C727 130.7 756 135.3 785.2 138C814.3 140.7 843.7 141.3 872.8 141.3C902 141.3 931 140.7 945.5 140.3L960 140L960 0L945.5 0C931 0 902 0 872.8 0C843.7 0 814.3 0 785.2 0C756 0 727 0 698 0C669 0 640 0 611 0C582 0 553 0 523.8 0C494.7 0 465.3 0 436.2 0C407 0 378 0 349 0C320 0 291 0 262 0C233 0 204 0 174.8 0C145.7 0 116.3 0 87.2 0C58 0 29 0 14.5 0L0 0Z" fill="#021343"></path><path d="M0 93L14.5 96.5C29 100 58 107 87.2 106.2C116.3 105.3 145.7 96.7 174.8 96.5C204 96.3 233 104.7 262 106.5C291 108.3 320 103.7 349 104C378 104.3 407 109.7 436.2 113.7C465.3 117.7 494.7 120.3 523.8 118C553 115.7 582 108.3 611 107.2C640 106 669 111 698 113C727 115 756 114 785.2 111.5C814.3 109 843.7 105 872.8 104.2C902 103.3 931 105.7 945.5 106.8L960 108L960 0L945.5 0C931 0 902 0 872.8 0C843.7 0 814.3 0 785.2 0C756 0 727 0 698 0C669 0 640 0 611 0C582 0 553 0 523.8 0C494.7 0 465.3 0 436.2 0C407 0 378 0 349 0C320 0 291 0 262 0C233 0 204 0 174.8 0C145.7 0 116.3 0 87.2 0C58 0 29 0 14.5 0L0 0Z" fill="#061038"></path><path d="M0 67L14.5 66.5C29 66 58 65 87.2 62.8C116.3 60.7 145.7 57.3 174.8 58.3C204 59.3 233 64.7 262 67.5C291 70.3 320 70.7 349 73.5C378 76.3 407 81.7 436.2 84.7C465.3 87.7 494.7 88.3 523.8 87C553 85.7 582 82.3 611 76.2C640 70 669 61 698 56.7C727 52.3 756 52.7 785.2 55C814.3 57.3 843.7 61.7 872.8 67.5C902 73.3 931 80.7 945.5 84.3L960 88L960 0L945.5 0C931 0 902 0 872.8 0C843.7 0 814.3 0 785.2 0C756 0 727 0 698 0C669 0 640 0 611 0C582 0 553 0 523.8 0C494.7 0 465.3 0 436.2 0C407 0 378 0 349 0C320 0 291 0 262 0C233 0 204 0 174.8 0C145.7 0 116.3 0 87.2 0C58 0 29 0 14.5 0L0 0Z" fill="#090c2d"></path><path d="M0 38L14.5 39.3C29 40.7 58 43.3 87.2 41.8C116.3 40.3 145.7 34.7 174.8 35.7C204 36.7 233 44.3 262 48C291 51.7 320 51.3 349 47.5C378 43.7 407 36.3 436.2 35.2C465.3 34 494.7 39 523.8 38.5C553 38 582 32 611 33.2C640 34.3 669 42.7 698 46.3C727 50 756 49 785.2 48.3C814.3 47.7 843.7 47.3 872.8 46.2C902 45 931 43 945.5 42L960 41L960 0L945.5 0C931 0 902 0 872.8 0C843.7 0 814.3 0 785.2 0C756 0 727 0 698 0C669 0 640 0 611 0C582 0 553 0 523.8 0C494.7 0 465.3 0 436.2 0C407 0 378 0 349 0C320 0 291 0 262 0C233 0 204 0 174.8 0C145.7 0 116.3 0 87.2 0C58 0 29 0 14.5 0L0 0Z" fill="#080622"></path></svg>