<svg id="visual" viewBox="0 0 960 300" width="960" height="300" xmlns="http://www.w3.org/2000/svg" xmlns:xlink="http://www.w3.org/1999/xlink" version="1.1"><rect x="0" y="0" width="960" height="300" fill="#040313"></rect><path d="M0 163L10.7 164.5C21.3 166 42.7 169 64 165.7C85.3 162.3 106.7 152.7 128 151.8C149.3 151 170.7 159 192 157.8C213.3 156.7 234.7 146.3 256 146C277.3 145.7 298.7 155.3 320 159.8C341.3 164.3 362.7 163.7 384 166.5C405.3 169.3 426.7 175.7 448 175.2C469.3 174.7 490.7 167.3 512 162.8C533.3 158.3 554.7 156.7 576 156.8C597.3 157 618.7 159 640 162.8C661.3 166.7 682.7 172.3 704 170.7C725.3 169 746.7 160 768 157.2C789.3 154.3 810.7 157.7 832 162C853.3 166.3 874.7 171.7 896 172.2C917.3 172.7 938.7 168.3 949.3 166.2L960 164L960 0L949.3 0C938.7 0 917.3 0 896 0C874.7 0 853.3 0 832 0C810.7 0 789.3 0 768 0C746.7 0 725.3 0 704 0C682.7 0 661.3 0 640 0C618.7 0 597.3 0 576 0C554.7 0 533.3 0 512 0C490.7 0 469.3 0 448 0C426.7 0 405.3 0 384 0C362.7 0 341.3 0 320 0C298.7 0 277.3 0 256 0C234.7 0 213.3 0 192 0C170.7 0 149.3 0 128 0C106.7 0 85.3 0 64 0C42.7 0 21.3 0 10.7 0L0 0Z" fill="#021343"></path><path d="M0 146L10.7 142.5C21.3 139 42.7 132 64 132.5C85.3 133 106.7 141 128 144.7C149.3 148.3 170.7 147.7 192 141C213.3 134.3 234.7 121.7 256 117.8C277.3 114 298.7 119 320 120C341.3 121 362.7 118 384 120.8C405.3 123.7 426.7 132.3 448 135C469.3 137.7 490.7 134.3 512 135.8C533.3 137.3 554.7 143.7 576 139.7C597.3 135.7 618.7 121.3 640 119.5C661.3 117.7 682.7 128.3 704 132.7C725.3 137 746.7 135 768 131.7C789.3 128.3 810.7 123.7 832 123.2C853.3 122.7 874.7 126.3 896 131.3C917.3 136.3 938.7 142.7 949.3 145.8L960 149L960 0L949.3 0C938.7 0 917.3 0 896 0C874.7 0 853.3 0 832 0C810.7 0 789.3 0 768 0C746.7 0 725.3 0 704 0C682.7 0 661.3 0 640 0C618.7 0 597.3 0 576 0C554.7 0 533.3 0 512 0C490.7 0 469.3 0 448 0C426.7 0 405.3 0 384 0C362.7 0 341.3 0 320 0C298.7 0 277.3 0 256 0C234.7 0 213.3 0 192 0C170.7 0 149.3 0 128 0C106.7 0 85.3 0 64 0C42.7 0 21.3 0 10.7 0L0 0Z" fill="#071036"></path><path d="M0 108L10.7 104.3C21.3 100.7 42.7 93.3 64 93.8C85.3 94.3 106.7 102.7 128 105C149.3 107.3 170.7 103.7 192 104.7C213.3 105.7 234.7 111.3 256 110C277.3 108.7 298.7 100.3 320 95.8C341.3 91.3 362.7 90.7 384 88C405.3 85.3 426.7 80.7 448 78.7C469.3 76.7 490.7 77.3 512 81.8C533.3 86.3 554.7 94.7 576 99.7C597.3 104.7 618.7 106.3 640 105.5C661.3 104.7 682.7 101.3 704 96C725.3 90.7 746.7 83.3 768 82.5C789.3 81.7 810.7 87.3 832 94.3C853.3 101.3 874.7 109.7 896 113C917.3 116.3 938.7 114.7 949.3 113.8L960 113L960 0L949.3 0C938.7 0 917.3 0 896 0C874.7 0 853.3 0 832 0C810.7 0 789.3 0 768 0C746.7 0 725.3 0 704 0C682.7 0 661.3 0 640 0C618.7 0 597.3 0 576 0C554.7 0 533.3 0 512 0C490.7 0 469.3 0 448 0C426.7 0 405.3 0 384 0C362.7 0 341.3 0 320 0C298.7 0 277.3 0 256 0C234.7 0 213.3 0 192 0C170.7 0 149.3 0 128 0C106.7 0 85.3 0 64 0C42.7 0 21.3 0 10.7 0L0 0Z" fill="#0b0c2a"></path><path d="M0 48L10.7 48C21.3 48 42.7 48 64 52C85.3 56 106.7 64 128 70C149.3 76 170.7 80 192 76.2C213.3 72.3 234.7 60.7 256 54.7C277.3 48.7 298.7 48.3 320 52C341.3 55.7 362.7 63.3 384 64.3C405.3 65.3 426.7 59.7 448 58C469.3 56.3 490.7 58.7 512 58.2C533.3 57.7 554.7 54.3 576 52.2C597.3 50 618.7 49 640 50.7C661.3 52.3 682.7 56.7 704 58.3C725.3 60 746.7 59 768 58.2C789.3 57.3 810.7 56.7 832 60.2C853.3 63.7 874.7 71.3 896 75.5C917.3 79.7 938.7 80.3 949.3 80.7L960 81L960 0L949.3 0C938.7 0 917.3 0 896 0C874.7 0 853.3 0 832 0C810.7 0 789.3 0 768 0C746.7 0 725.3 0 704 0C682.7 0 661.3 0 640 0C618.7 0 597.3 0 576 0C554.7 0 533.3 0 512 0C490.7 0 469.3 0 448 0C426.7 0 405.3 0 384 0C362.7 0 341.3 0 320 0C298.7 0 277.3 0 256 0C234.7 0 213.3 0 192 0C170.7 0 149.3 0 128 0C106.7 0 85.3 0 64 0C42.7 0 21.3 0 10.7 0L0 0Z" fill="#09071f"></path><path d="M0 18L10.7 22.3C21.3 26.7 42.7 35.3 64 35.8C85.3 36.3 106.7 28.7 128 28.8C149.3 29 170.7 37 192 39C213.3 41 234.7 37 256 34C277.3 31 298.7 29 320 29C341.3 29 362.7 31 384 33.3C405.3 35.7 426.7 38.3 448 40.2C469.3 42 490.7 43 512 42.2C533.3 41.3 554.7 38.7 576 37.8C597.3 37 618.7 38 640 36.5C661.3 35 682.7 31 704 30.3C725.3 29.7 746.7 32.3 768 32.2C789.3 32 810.7 29 832 27C853.3 25 874.7 24 896 23.8C917.3 23.7 938.7 24.3 949.3 24.7L960 25L960 0L949.3 0C938.7 0 917.3 0 896 0C874.7 0 853.3 0 832 0C810.7 0 789.3 0 768 0C746.7 0 725.3 0 704 0C682.7 0 661.3 0 640 0C618.7 0 597.3 0 576 0C554.7 0 533.3 0 512 0C490.7 0 469.3 0 448 0C426.7 0 405.3 0 384 0C362.7 0 341.3 0 320 0C298.7 0 277.3 0 256 0C234.7 0 213.3 0 192 0C170.7 0 149.3 0 128 0C106.7 0 85.3 0 64 0C42.7 0 21.3 0 10.7 0L0 0Z" fill="#040313"></path></svg>