<?xml version="1.0" encoding="UTF-8" standalone="no"?>
<!-- Created with Inkscape (http://www.inkscape.org/) -->

<svg
   version="1.1"
   id="svg2"
   width="759.56"
   height="760.22748"
   viewBox="0 0 759.56 760.22748"
   sodipodi:docname="logo-svg.svg"
   inkscape:version="1.2.2 (732a01da63, 2022-12-09)"
   xmlns:inkscape="http://www.inkscape.org/namespaces/inkscape"
   xmlns:sodipodi="http://sodipodi.sourceforge.net/DTD/sodipodi-0.dtd"
   xmlns="http://www.w3.org/2000/svg"
   xmlns:svg="http://www.w3.org/2000/svg">
  <defs
     id="defs6">
    <clipPath
       clipPathUnits="userSpaceOnUse"
       id="clipPath16">
      <path
         d="M 0,1080 H 1920 V 0 H 0 Z"
         id="path14" />
    </clipPath>
    <clipPath
       clipPathUnits="userSpaceOnUse"
       id="clipPath60">
      <path
         d="M 0,1080 H 1920 V 0 H 0 Z"
         id="path58" />
    </clipPath>
  </defs>
  <sodipodi:namedview
     id="namedview4"
     pagecolor="#ffffff"
     bordercolor="#000000"
     borderopacity="0.25"
     inkscape:showpageshadow="2"
     inkscape:pageopacity="0.0"
     inkscape:pagecheckerboard="0"
     inkscape:deskcolor="#d1d1d1"
     showgrid="false"
     inkscape:zoom="0.58632812"
     inkscape:cx="353.8974"
     inkscape:cy="385.4497"
     inkscape:window-width="3840"
     inkscape:window-height="2054"
     inkscape:window-x="2869"
     inkscape:window-y="-11"
     inkscape:window-maximized="1"
     inkscape:current-layer="g8" />
  <g
     id="g8"
     inkscape:groupmode="layer"
     inkscape:label="LOGO"
     transform="matrix(1.3333333,0,0,-1.3333333,-926.05158,1105.2545)">
    <g
       id="g10">
      <g
         id="g12"
         clip-path="url(#clipPath16)">
        <g
           id="g18"
           transform="translate(1264.2087,544.1059)">
          <path
             d="m 0,0 c 0,-157.31 -127.525,-284.835 -284.835,-284.835 -157.31,0 -284.835,127.525 -284.835,284.835 0,157.31 127.525,284.835 284.835,284.835 C -127.525,284.835 0,157.31 0,0"
             style="fill:#20284e;fill-opacity:1;fill-rule:nonzero;stroke:none"
             id="path20" />
        </g>
        <g
           id="g22"
           transform="translate(1217.3304,514.0752)">
          <path
             d="m 0,0 c 5.34,-130.983 -96.514,-241.494 -227.497,-246.834 -130.983,-5.34 -241.494,96.514 -246.834,227.497 -5.34,130.983 96.514,241.494 227.497,246.834 C -115.851,232.837 -5.34,130.983 0,0"
             style="fill:#263167;fill-opacity:1;fill-rule:nonzero;stroke:none"
             id="path24" />
        </g>
        <g
           id="g26"
           transform="translate(1174.8022,460.4945)">
          <path
             d="m 0,0 c 0,-110.773 -89.799,-200.571 -200.571,-200.571 -110.773,0 -200.572,89.798 -200.572,200.571 0,110.773 89.799,200.571 200.572,200.571 C -89.799,200.571 0,110.773 0,0"
             style="fill:#256da9;fill-opacity:1;fill-rule:nonzero;stroke:none"
             id="path28" />
        </g>
        <g
           id="g30"
           transform="translate(1105.967,389.8791)">
          <path
             d="m 0,0 c 0,-72.428 -58.616,-130.055 -131.044,-130.055 -72.428,0 -131.242,57.627 -131.242,130.055 0,72.428 58.715,131.143 131.143,131.143 C -58.715,131.143 0,72.428 0,0"
             style="fill:#afdff9;fill-opacity:1;fill-rule:nonzero;stroke:none"
             id="path32" />
        </g>
        <g
           id="g34"
           transform="translate(1203.8948,368.8103)">
          <path
             d="m 0,0 c -52.133,-66.678 -133.322,-109.54 -224.521,-109.54 -89.438,0 -169.248,41.222 -221.468,105.703 C -332.323,-48.755 -1.203,-2.272 0,0"
             style="fill:#000000;fill-opacity:1;fill-rule:nonzero;stroke:none"
             id="path36" />
        </g>
        <g
           id="g38"
           transform="translate(1203.8948,368.8103)">
          <path
             d="m 0,0 c -52.133,-66.678 -133.322,-109.54 -224.521,-109.54 -89.438,0 -169.248,41.222 -221.468,105.703 C -332.323,-48.755 -1.203,-2.272 0,0 Z"
             style="fill:none;stroke:#000000;stroke-width:1;stroke-linecap:butt;stroke-linejoin:miter;stroke-miterlimit:10;stroke-dasharray:none;stroke-opacity:1"
             id="path40" />
        </g>
        <g
           id="g42"
           transform="translate(784.3253,365.5252)">
          <path
             d="m 0,0 13.348,1.463 c 1.171,0.129 1.795,1.448 1.15,2.435 L -8.63,39.279 c -1.015,1.554 1.016,3.283 2.387,2.032 L 4.162,31.818 c 1.375,-1.255 3.41,0.487 2.382,2.039 v 0 c -1.102,1.664 1.257,3.417 2.532,1.882 L 28.184,12.733 c 0.973,-1.171 2.877,-0.424 2.793,1.097 l -3.411,61.676 c 0.01,0.137 0.02,0.273 0.031,0.411 l 8.405,40.033 c 0.401,1.91 3.23,1.539 3.124,-0.41 L 37.972,94.351 c -0.101,-1.843 2.501,-2.333 3.078,-0.58 l 0.353,1.073 c 0.596,1.812 3.297,1.216 3.07,-0.677 -1.465,-12.207 -3.358,-27.621 -3.95,-30.846 -0.916,-4.99 2.546,-47.26 3.2,-55.102 0.061,-0.732 0.619,-1.324 1.346,-1.43 L 57.022,5.048 c 0.938,-0.136 1.784,0.578 1.806,1.526 l 0.88,36.909 c 0.044,1.829 2.641,2.134 3.107,0.365 L 72.864,5.713 c 0.117,-0.442 0.419,-0.812 0.83,-1.014 l 3.862,-1.904 c 1.097,-0.541 2.366,0.316 2.274,1.536 l -4.72,62.664 c -0.144,1.916 2.612,2.38 3.103,0.522 L 94.855,4.476 C 95.032,3.805 95.626,3.328 96.32,3.301 l 26.053,-1.035 c 1.03,-0.041 1.823,0.899 1.608,1.907 l -8.1,38.022 c -0.097,0.456 0.012,0.93 0.297,1.298 l 6.007,7.74 c 0.789,1.017 2.398,0.713 2.762,-0.521 l 11.914,-40.306 c 0.258,-0.872 1.197,-1.347 2.053,-1.037 l 19.023,6.883 c 0.649,0.235 1.07,0.864 1.04,1.554 l -4.451,102.406 c -0.03,0.679 -0.238,3.45 -0.831,3.45 l -49.945,-0.824 c -0.19,0.054 -36.261,23.404 -36.419,23.525 l -4.837,3.699 c -9.567,7.317 -14.046,19.502 -11.495,31.273 l 5.494,25.359 c 0.02,0.069 0.04,0.137 0.06,0.206 l 26.594,72.99 c 1.189,3.264 3.117,6.21 5.632,8.606 l 20.878,22.176 c 0.033,0.022 0.065,0.044 0.098,0.067 l 3.289,1.366 c 0.01,0.003 0.019,0.007 0.029,0.01 l 28.276,8.36 c 0.588,0.176 33.878,5.351 36.248,5.749 0.086,0.007 0.165,0.014 0.251,0.021 l 37.626,0.133 c 0.131,-0.016 0.261,-0.032 0.392,-0.048 l 29.393,-7.417 c 0.13,-0.052 0.259,-0.104 0.389,-0.156 l 31.395,-17.687 c 0.107,-0.08 0.213,-0.159 0.321,-0.239 l 27.192,-26.175 c 0.071,-0.084 0.141,-0.167 0.211,-0.25 l 27.368,-40.231 c 0.107,-0.157 0.185,-0.325 0.23,-0.51 0.478,-1.949 5.525,-17.151 7.589,-27.83 0.765,-3.961 1.876,-25.343 2.473,-37.803 0.275,-5.718 -1.996,-11.259 -6.202,-15.144 l -7.079,-8.753 c -0.156,-0.144 -17.109,-12.984 -17.308,-13.055 l -13.154,-5.539 c -0.171,-0.061 -18.643,-2.933 -18.824,-2.934 l -58.27,-2.281 c -0.812,-10e-4 -1.492,-0.619 -1.57,-1.428 l -3.877,-40.165 c 0.005,-0.144 0.011,-0.286 0.017,-0.43 l 7.03,-39.336 c 0.038,-0.214 0.12,-0.418 0.241,-0.598 L 250.38,-2.062 c 0.32,-0.479 0.875,-0.747 1.448,-0.698 l 61.539,5.222 c 0.657,0.056 1.21,0.513 1.388,1.148 l 18.215,65.058 c 0.505,1.805 3.174,1.384 3.1,-0.488 l -2.232,-56.182 c -0.06,-1.51 1.83,-2.234 2.794,-1.072 l 7.491,9.029 c 0.221,0.267 0.349,0.6 0.363,0.946 l 3.05,76.793 c 0.076,1.916 2.858,2.067 3.141,0.171 L 364.406,5.906 c 0.222,-1.489 2.204,-1.853 2.94,-0.539 l 17.135,30.59 c 0.867,1.547 3.233,0.711 2.935,-1.037 L 381.98,2.983 c -0.144,-0.844 0.411,-1.649 1.251,-1.815 l 36.17,2.167 c 0.142,-0.028 -39.927,-33.739 -39.783,-33.728 0,0 -48.775,-13.709 -49.582,-13.714 H 32.541 c -1.548,-0.01 -36.079,27.065 -34.813,27.956 L -26.206,-0.558 C -15.03,-0.558 0,0 0,0"
             style="fill:#000000;fill-opacity:1;fill-rule:nonzero;stroke:none"
             id="path44" />
        </g>
        <g
           id="g46"
           transform="translate(897.6735,677.6825)">
          <path
             d="m 0,0 c 0,0 145.868,69.664 218.315,-74.111 72.528,-143.934 -99.956,-113.275 -99.956,-113.275"
             style="fill:#000000;fill-opacity:1;fill-rule:nonzero;stroke:none"
             id="path48" />
        </g>
      </g>
    </g>
    <text
       xml:space="preserve"
       transform="matrix(1,0,0,-1,821.7563,313.457)"
       style="font-variant:normal;font-weight:normal;font-stretch:normal;font-size:50px;font-family:'Gill Sans Ultra Bold';-inkscape-font-specification:GillSans-UltraBold;writing-mode:lr-tb;fill:#ffffff;fill-opacity:1;fill-rule:nonzero;stroke:none"
       id="text52"><tspan
         x="0 62.549999 115.75 162.14999 220.55 283.10001"
         y="0"
         sodipodi:role="line"
         id="tspan50">MUSHME</tspan></text>
    <g
       id="g54">
      <g
         id="g56"
         clip-path="url(#clipPath60)">
        <g
           id="g62"
           transform="translate(1036.4396,683.4653)">
          <path
             d="m 0,0 c 0,0 -150.486,60.461 -215.818,-84.53 -65.404,-145.152 106.578,-105.736 106.578,-105.736"
             style="fill:#000000;fill-opacity:1;fill-rule:nonzero;stroke:none"
             id="path64" />
        </g>
      </g>
    </g>
  </g>
</svg>
