<?xml version="1.0" encoding="UTF-8"?>
<svg id="Layer_2" data-name="Layer 2" xmlns="http://www.w3.org/2000/svg" viewBox="0 0 655.12 655.12">
  <defs>
    <style>
      .cls-1, .cls-2, .cls-3 {
        fill: #fff;
      }

      .cls-2 {
        stroke-width: .36px;
      }

      .cls-2, .cls-4, .cls-3, .cls-5, .cls-6, .cls-7 {
        stroke-miterlimit: 10;
      }

      .cls-2, .cls-4, .cls-3, .cls-7 {
        stroke: #1d1d1b;
      }

      .cls-4 {
        fill: #37beec;
      }

      .cls-4, .cls-7 {
        stroke-width: 4.21px;
      }

      .cls-3 {
        stroke-width: .84px;
      }

      .cls-8 {
        fill: #1a203d;
      }

      .cls-5 {
        stroke-width: .46px;
      }

      .cls-5, .cls-6 {
        stroke: #fff;
      }

      .cls-9 {
        fill: #3bbfea;
      }

      .cls-6 {
        stroke-width: 1.11px;
      }

      .cls-6, .cls-7 {
        fill: none;
      }

      .cls-10 {
        fill: #1d1d1b;
      }

      .cls-11 {
        fill: #35342a;
      }
    </style>
  </defs>
  <g id="circle">
    <circle class="cls-1" cx="327.56" cy="327.56" r="327.56"/>
  </g>
  <g id="grzyb">
    <path class="cls-11" d="m411.81,375.46c.04,4.63-.05,11.48-.74,19.64-1.69,20.06-5.04,25.11-8.79,47.82-2.49,15.1-4.42,27.31-2.88,43.19.71,7.24,1.7,16.66,6.24,25.38,4.22,8.09,9.26,11.29,15.78,15.29,12.3,7.53,22.89,8.09,26.91,8.12,6.97.04,18.02.1,29.6-9.8,5.07-4.33,12.43-10.62,16.5-23.98,4.16-13.64,2.57-27.06,1.09-39.57-2.64-22.32-9.78-44.03-11.7-49.89-1.54-4.67-4.46-13.07-5.67-25.1-.77-7.67-.17-10.08-.75-12.46-1.95-7.97-16.3-11.89-65.6,1.36Z"/>
    <path class="cls-8" d="m412.68,392.01c20.67-1.45,53.9-3.78,77.79,3.99,1.87.61,11.32,3.76,22.78,1.34,4.42-.93,10.3-2.27,14.71-7.87,4.71-5.98,5.1-13.44,5.28-17.77.65-16.16-7.14-28.59-10.38-33.61-15.73-24.4-40.55-31.59-50.7-34.53-6.97-2.02-33.96-9.01-64.66,3.46-8.15,3.31-20.68,8.58-32.12,22.06-6.45,7.6-17.69,20.85-16.21,38.56.3,3.65,1.74,14.52,9.07,21.73,9.33,9.17,20.04,4.36,44.44,2.64Z"/>
    <ellipse class="cls-9" cx="392.16" cy="356.7" rx="13.36" ry="6.4" transform="translate(-89.37 134.99) rotate(-17.57)"/>
    <ellipse class="cls-9" cx="470.79" cy="320.17" rx="6.4" ry="13.36" transform="translate(100.47 752.62) rotate(-83.64)"/>
    <ellipse class="cls-9" cx="505.61" cy="338.36" rx="6.4" ry="13.36" transform="translate(-81.58 497.51) rotate(-48.96)"/>
    <ellipse class="cls-9" cx="434.32" cy="363.42" rx="21.33" ry="16.92" transform="translate(-89.43 148.03) rotate(-17.57)"/>
    <ellipse class="cls-9" cx="417.34" cy="325.57" rx="6.4" ry="13.36" transform="translate(47.56 704.3) rotate(-83.64)"/>
    <ellipse class="cls-9" cx="505.65" cy="379.18" rx="11.73" ry="9.18" transform="translate(-108.13 228.4) rotate(-23.06)"/>
  </g>
  <g id="carton">
    <g id="Warstwa_7" data-name="Warstwa 7">
      <path class="cls-3" d="m172.01,171.26l61.3-33.32,117.5-.44,63.97,33.98s-243.66,3.33-243.44,2.44l.67-2.67Z"/>
    </g>
    <rect class="cls-4" x="166.68" y="173.11" width="250.29" height="359.42"/>
    <polygon class="cls-4" points="350.53 137.5 350.39 137.5 233.36 137.5 233.1 137.5 233.1 97.17 350.53 97.17 350.53 137.5"/>
    <line class="cls-7" x1="169.23" y1="173.11" x2="170.23" y2="173.03"/>
    <line class="cls-7" x1="166.68" y1="173.11" x2="233.1" y2="137.5"/>
    <line class="cls-7" x1="416.96" y1="173.11" x2="350.53" y2="137.5"/>
  </g>
  <g id="Warstwa_4" data-name="Warstwa 4">
    <rect class="cls-10" x="275.63" y="253.88" width="30.61" height="184.53" rx="12" ry="12" transform="translate(331.79 -104.18) rotate(45.23)"/>
    <ellipse class="cls-10" cx="351.9" cy="266.16" rx="26.13" ry="23.32" transform="translate(-85.38 325.03) rotate(-44.77)"/>
    <ellipse class="cls-10" cx="373.68" cy="288.7" rx="26.13" ry="23.32" transform="translate(-94.93 346.9) rotate(-44.77)"/>
    <ellipse class="cls-10" cx="206.72" cy="407.62" rx="26.13" ry="23.32" transform="translate(-227.11 263.81) rotate(-44.77)"/>
    <ellipse class="cls-10" cx="228.5" cy="430.15" rx="26.13" ry="23.32" transform="translate(-236.66 285.69) rotate(-44.77)"/>
    <rect class="cls-10" x="273.56" y="257.7" width="30.61" height="184.53" rx="12" ry="12" transform="translate(-162.68 304.94) rotate(-44.77)"/>
    <ellipse class="cls-10" cx="208.88" cy="288.99" rx="23.32" ry="26.13" transform="translate(-142.94 230.93) rotate(-44.77)"/>
    <ellipse class="cls-10" cx="231.41" cy="267.21" rx="23.32" ry="26.13" transform="translate(-121.06 240.48) rotate(-44.77)"/>
    <ellipse class="cls-10" cx="350.33" cy="434.18" rx="23.32" ry="26.13" transform="translate(-204.16 372.66) rotate(-44.77)"/>
    <ellipse class="cls-10" cx="372.87" cy="412.4" rx="23.32" ry="26.13" transform="translate(-182.28 382.21) rotate(-44.77)"/>
  </g>
  <g id="skull">
    <path class="cls-5" d="m364.52,372.02h-144.85c0-48.1,32.43-87.09,72.43-87.09s72.43,38.99,72.43,87.09Z"/>
    <ellipse class="cls-2" cx="266.12" cy="334.33" rx="13.58" ry="12.39"/>
    <ellipse class="cls-2" cx="314.01" cy="335.1" rx="13.58" ry="12.39"/>
    <path class="cls-10" d="m247.34,368.14c-.62-4.01-.92-8.06-.93-12.12,0-1.34-2.09-1.35-2.09,0,.02,4.25.36,8.48,1,12.67.09.56.79.87,1.29.73.6-.16.82-.73.73-1.29h0Z"/>
    <line class="cls-6" x1="241.9" y1="371.92" x2="241.9" y2="360.01"/>
    <line class="cls-6" x1="275.89" y1="371.82" x2="275.89" y2="359.8"/>
    <line class="cls-6" x1="307.81" y1="372.02" x2="307.81" y2="360.41"/>
    <line class="cls-6" x1="338.47" y1="371.62" x2="338.47" y2="359.8"/>
  </g>
</svg>